/* XPM */
static char *e5f214d9f73241cee6e1f8d38526f963EP4Aeuq9dEomNa5R[] = {
/* columns rows colors chars-per-pixel */
"64 64 15 1 ",
"  c None",
". c #101010",
"X c #285860",
"o c #587040",
"O c #B82820",
"+ c #D84840",
"@ c #F86860",
"# c #78A840",
"$ c #98D048",
"% c #B8F870",
"& c #609098",
"* c #60D0A0",
"= c #80E8C0",
"- c #C8C8C8",
"; c #F8F8F8",
/* pixels */
"                                                                ",
"                                                                ",
"                                                                ",
"                                                                ",
"                                                                ",
"                                                                ",
"                                                                ",
"                                                                ",
"                                                                ",
"                                                                ",
"                                                                ",
"                                                                ",
"                                                                ",
"                                                                ",
"                                                                ",
"                                     # oo                       ",
"                                    #$#o$o.                     ",
"                                  ###$#o$$.                     ",
"                              ###%%%%$o$$$o..                   ",
"                            #$$%%%$$$o$%$#o#.                   ",
"                           o$$$$#o#%%%%%%#oo.                   ",
"                          #$$$$o$$$%%%$%$$o#o                   ",
"                 &X       o$$$#$XXX$%$%$%$o#o.                  ",
"                &==X  &XXXX&$$XX=*&X$%$%$#o##.                  ",
"                &==*&*******XX==**&.$$$$$#o###.                 ",
"                &=====&&&&*******&&.$$$$$##o##.                 ",
"                &======&&*******&&&.$$$$###o###o                ",
"                *===&&=********&&&&.#######o###.                ",
"               &====&&=**&==&X*&&&&X.######o###.                ",
"               &*&=====*&==&--X&&&&&..#####o##o.                ",
"               &;.*====*==&.;;-X&&&&.&.###o#ooo.                ",
"               &;O&===**=*.O.;-.&&&&.&&.ooooooo                 ",
"              &=;@&==****&;@.;-X&&&&.&&&Xooooo.                 ",
"              X=&@&******&;@&;-&&&&&X&&XXX.oo.                  ",
"              X===**&**X******&&&&&&X&&XXXX..                   ",
"              &****************&X&&X&&&XXX&X.                   ",
"               .&;OO&**&OOO;XXXX&&&&&&&&&&&&X                   ",
"                .*OOOOOOOOOOOOX&&&&&&X&&X&&&&.                  ",
"                 .*OOOO++++OOX&&&&&&&.&X&&XX&.                  ",
"                  &**O++++O&&&X&&**&&&XX&XXX&&X                 ",
"                 &*&X******&XX&X**&XX&.&&XX&&&.                 ",
"                 &***XXXXXXX&&&X***XX&.&&&&&&&.                 ",
"                 XX**&X&&&&&&&&X****&&.&&&&&&&.                 ",
"                &X&*&&XXX&&&&&&X&***&&.X&&&&&X.                 ",
"                &***&&.  XX.....X**&&&.XX&&&X.                  ",
"                &*&&&.     .XXXX.X&&&&X.*X*X*.                  ",
"               &;X;..       .... .;X;X; XX...                   ",
"                & &               X X X                         ",
"                                                                ",
"                                                                ",
"                                                                ",
"                                                                ",
"                                                                ",
"                                                                ",
"                                                                ",
"                                                                ",
"                                                                ",
"                                                                ",
"                                                                ",
"                                                                ",
"                                                                ",
"                                                                ",
"                                                                ",
"                                                                "
};
