/* XPM */
static char *a4385767df634dd5c3c20e70912d4ec9it1K2iaSV5akgldo[] = {
/* columns rows colors chars-per-pixel */
"64 64 11 1 ",
"  c None",
". c #101010",
"X c #831010",
"o c #FF5220",
"O c #EE4131",
"+ c #D53141",
"@ c #FF835A",
"# c #B4ACBD",
"$ c #FFAC9C",
"% c #DED5D5",
"& c white",
/* pixels */
"                                                                ",
"                                                                ",
"                                                                ",
"                                                                ",
"                                                                ",
"                                                                ",
"                                                                ",
"                                                                ",
"                                                                ",
"                                                                ",
"                                                                ",
"                                                                ",
"                                                                ",
"                                                                ",
"                                                                ",
"                                                                ",
"                                                                ",
"                                                                ",
"                                                                ",
"                                                                ",
"                                                                ",
"                                                                ",
"                              XXXX                              ",
"                           XOOooooO+.                           ",
"                          +ooooooooooX                          ",
"                         +oooooooooooo+                         ",
"                        +ooooooooooooooX                        ",
"                       Xo@$$@ooooooooooo.                       ",
"                       Oo@$$@ooooooooooo+                       ",
"                       Ooo@@oooooooooooO+                       ",
"                      XooooooooooooXooo++X                      ",
"                      XooooO@@ooo++Oooo++X                      ",
"                      Xoooo+o@oo#%%oooO+@X                      ",
"                      XoOOoXooXX&&%ooo++#X                      ",
"                       +++oOXO%#&&%ooO+##                       ",
"                       @&%+oOO@$$$ooO####                       ",
"                       XOOooooooooO@####.                       ",
"                        #%Oooooo@%######                        ",
"                         #&&&&&%%######                         ",
"                          ############                          ",
"                           .########.                           ",
"                              XXXX                              ",
"                                                                ",
"                                                                ",
"                                                                ",
"                                                                ",
"                                                                ",
"                                                                ",
"                                                                ",
"                                                                ",
"                                                                ",
"                                                                ",
"                                                                ",
"                                                                ",
"                                                                ",
"                                                                ",
"                                                                ",
"                                                                ",
"                                                                ",
"                                                                ",
"                                                                ",
"                                                                ",
"                                                                ",
"                                                                "
};
