/* XPM */
static char *d650614356e24d6da368561f8bf74514WYbfYD1yrvChLhZT[] = {
/* columns rows colors chars-per-pixel */
"64 64 13 1 ",
"  c None",
". c black",
"X c gray16",
"o c #623108",
"O c #41414A",
"+ c #C52018",
"@ c #9C5200",
"# c #E65A41",
"$ c #DE9400",
"% c #F6BD20",
"& c #F6E652",
"* c #737383",
"= c #FFF6A4",
/* pixels */
"                                                                ",
"                                                                ",
"                                                                ",
"                                                                ",
"                                                                ",
"                                                                ",
"                                                                ",
"                                                                ",
"                                                                ",
"                                                                ",
"                                                                ",
"                                                                ",
"                                                                ",
"                                                                ",
"                                                                ",
"                                                                ",
"                                                                ",
"                      ..                                        ",
"                      XX.                                       ",
"                     .XXo                                       ",
"                     .O%@           XXX                         ",
"                     .%%$        @%&OOOX                        ",
"                     .%%$  ##$ $%&&&OOX                         ",
"                      @%$&===&&&&&&*OX     @                    ",
"                       $&====&&&&&%..     %&$                   ",
"                      @@&&&&&=o&&@       %&&&                   ",
"                      o=&&&&&oO&&@      %&&&&$                  ",
"                      oo&&&&&&&%%%o   $&&&&&&$                  ",
"                     o&&&@$%&&&##%.  $&&&&&&&&@                 ",
"                     o#%%%%%%%%++%.  %&&&&&&&&@                 ",
"                     o$%%%%%%%%$$%. $%%&&&&&&@                  ",
"                       %%%%%%%%%%%o@%%%%%%&@                    ",
"                       %%%%%%%%%%%& @%%%$@.                     ",
"                       &&%%%%%%%%&&  @%$                        ",
"                       &&&&%%%%&&&&   @%o                       ",
"                      @&&&&&&%&&&&&@ @%%$                       ",
"                      @&&$&&&&&&&&&@@$$$o                       ",
"                      o&&%&&$&&&$&&@@$o                         ",
"                      @%&&%&@&&$&&%%.o@                         ",
"                     @&&$%&&&$$&&&%%.o@o                        ",
"                     $&&&&&&&&&&%%%%@o.                         ",
"                     $%%&&&&&&%&%%%%$                           ",
"                     @%%%%%%%%%%%%%%o                           ",
"                      @%%%$@@@%%%%%@                            ",
"                     @@$@@.   X@@$@                             ",
"                     @o@        o%$@                            ",
"                                 ..                             ",
"                                                                ",
"                                                                ",
"                                                                ",
"                                                                ",
"                                                                ",
"                                                                ",
"                                                                ",
"                                                                ",
"                                                                ",
"                                                                ",
"                                                                ",
"                                                                ",
"                                                                ",
"                                                                ",
"                                                                ",
"                                                                ",
"                                                                "
};
